# xmcd CD database file
#
# Track frame offsets:
#	150
#	47553
#	107838
#	161325
#	213983
#	259185
#
# Disc length: 4325 seconds
#
# Revision: 8
# Processed by: cddbd v1.5.2PL0 Copyright (c) Steve Scherf et al.
# Submitted via: CDex 1.51
#
DISCID=4a10e306
DTITLE=Ken Follett - Die Kinder von Eden
DYEAR=2001
DGENRE=Hörbuch
TTITLE0=Die Kinder von Eden 07
TTITLE1=Die Kinder von Eden 08
TTITLE2=Die Kinder von Eden 09
TTITLE3=Die Kinder von Eden 10
TTITLE4=Die Kinder von Eden 11
TTITLE5=Die Kinder von Eden 12
EXTD=YEAR: 2001
EXTT0=
EXTT1=
EXTT2=
EXTT3=
EXTT4=
EXTT5=
PLAYORDER=
